<?xml version="1.0" encoding="UTF-8"?>
<svg width="85px" height="14px" viewBox="0 0 85 14" version="1.1" xmlns="http://www.w3.org/2000/svg" xmlns:xlink="http://www.w3.org/1999/xlink">
    <!-- Generator: sketchtool 51.3 (57544) - http://www.bohemiancoding.com/sketch -->
    <title>D4382B92-1B28-4DFA-B348-15B59B523D7A</title>
    <desc>Created with sketchtool.</desc>
    <defs>
        <polygon id="path-1" points="0 0.322233333 8.1619554 0.322233333 8.1619554 9.93517778 0 9.93517778"></polygon>
        <polygon id="path-3" points="0.18608216 0.319938889 8.35725587 0.319938889 8.35725587 12.0555556 0.18608216 12.0555556"></polygon>
        <polygon id="path-5" points="0.110180751 0.118572222 8.05744131 0.118572222 8.05744131 9.43790556 0.110180751 9.43790556"></polygon>
    </defs>
    <g id="Desktop" stroke="none" stroke-width="1" fill="none" fill-rule="evenodd">
        <g id="failfast-Menu" transform="translate(-1264.000000, -768.000000)">
            <g id="opentrends" transform="translate(1264.000000, 768.000000)">
                <g id="Group-3" transform="translate(0.000000, 1.817511)">
                    <mask id="mask-2" fill="white">
                        <use xlink:href="#path-1"></use>
                    </mask>
                    <g id="Clip-2"></g>
                    <path d="M5.20052347,2.8469 C4.922777,2.57623333 4.55284742,2.43234444 4.07118075,2.43234444 C3.59031221,2.43234444 3.23873944,2.57623333 2.96139202,2.8469 C2.46136854,3.33378889 2.40589906,4.1454 2.40589906,5.11956667 C2.40589906,6.09334444 2.46136854,6.92245556 2.96139202,7.40973333 C3.23873944,7.6804 3.59031221,7.82428889 4.07118075,7.82428889 C4.55284742,7.82428889 4.922777,7.6804 5.20052347,7.40973333 C5.70014789,6.92245556 5.75561737,6.09334444 5.75561737,5.11956667 C5.75561737,4.1454 5.70014789,3.33378889 5.20052347,2.8469 M7.06972535,8.78095556 C6.47751878,9.39384444 5.4962277,9.93517778 4.07118075,9.93517778 C2.6461338,9.93517778 1.68359859,9.39384444 1.09179108,8.78095556 C0.22263615,7.89701111 -3.99061033e-05,6.83262222 -3.99061033e-05,5.11956667 C-3.99061033e-05,3.42401111 0.22263615,2.36001111 1.09179108,1.47645556 C1.68359859,0.862788889 2.6461338,0.322233333 4.07118075,0.322233333 C5.4962277,0.322233333 6.47751878,0.862788889 7.06972535,1.47645556 C7.93927934,2.36001111 8.1619554,3.42401111 8.1619554,5.11956667 C8.1619554,6.83262222 7.93927934,7.89701111 7.06972535,8.78095556" id="Fill-1" fill="#FEFEFE" mask="url(#mask-2)"></path>
                </g>
                <path d="M24.5514718,5.06092222 C24.2920822,4.50208889 23.7557441,4.08714444 22.9412606,4.08714444 C22.1271761,4.08714444 21.590439,4.50208889 21.3314484,5.06092222 C21.1829977,5.40392222 21.1271291,5.65631111 21.1091714,6.07125556 L24.7733498,6.07125556 C24.7545939,5.65631111 24.6991244,5.40392222 24.5514718,5.06092222 Z M21.1091714,7.6762 C21.1091714,8.88447778 21.8681854,9.76803333 23.219007,9.76803333 C24.2741244,9.76803333 24.7925047,9.47947778 25.4030681,8.88447778 L26.8648286,10.2732 C25.8843357,11.2290889 24.9397582,11.7525333 23.2002512,11.7525333 C20.924007,11.7525333 18.7407441,10.7422 18.7407441,6.93692222 C18.7407441,3.87092222 20.4427394,2.13958889 22.9412606,2.13958889 C25.6253451,2.13958889 27.1429742,4.05136667 27.1429742,6.63008889 L27.1429742,7.6762 L21.1091714,7.6762 Z" id="Fill-4" fill="#FEFEFE"></path>
                <g id="Group-8" transform="translate(9.178404, 1.817511)">
                    <mask id="mask-4" fill="white">
                        <use xlink:href="#path-3"></use>
                    </mask>
                    <g id="Clip-7"></g>
                    <path d="M5.39303052,7.41599444 C5.11488498,7.68666111 4.74455634,7.83093889 4.26249061,7.83093889 C3.78082394,7.83093889 3.42885211,7.68666111 3.15110563,7.41599444 C2.64988498,6.92793889 2.59481455,6.09766111 2.59481455,5.12271667 C2.59481455,4.14777222 2.64988498,3.33538333 3.15110563,2.84771667 C3.42885211,2.57705 3.78082394,2.43277222 4.26249061,2.43277222 C4.74455634,2.43277222 5.11488498,2.57705 5.39303052,2.84771667 C5.89305399,3.33538333 5.94852347,4.14777222 5.94852347,5.12271667 C5.94852347,6.09766111 5.89305399,6.92793889 5.39303052,7.41599444 M7.2642277,1.47571667 C6.671223,0.861661111 5.68953286,0.319938889 4.26249061,0.319938889 C2.83624648,0.319938889 1.87291315,0.861661111 1.27911033,1.47571667 C0.408359155,2.36043889 0.18608216,3.42599444 0.18608216,5.12271667 L0.18608216,5.12466111 L0.18608216,12.0558278 L2.59481455,12.0558278 L2.59481455,9.65132778 C3.06051878,9.83138333 3.61401643,9.94416111 4.26249061,9.94416111 C5.68953286,9.94416111 6.671223,9.40127222 7.2642277,8.78799444 C8.13497887,7.90327222 8.35725587,6.83849444 8.35725587,5.12271667 C8.35725587,3.42599444 8.13497887,2.36043889 7.2642277,1.47571667" id="Fill-6" fill="#FEFEFE" mask="url(#mask-4)"></path>
                </g>
                <path d="M36.5178756,11.6044444 L36.5178756,6.94011111 C36.5178756,5.24377778 36.2955986,4.17783333 35.4240493,3.29311111 C34.8322418,2.67905556 33.8493545,2.13733333 32.4231103,2.13733333 C30.9964671,2.13733333 30.0327347,2.67905556 29.43973,3.29311111 C28.5693779,4.17783333 28.3467019,5.24377778 28.3467019,6.94011111 L28.3467019,6.94244444 L28.3467019,8.32494444 L28.3467019,11.6044444 L30.7558333,11.6044444 L30.7558333,6.94011111 C30.7558333,5.96516667 30.8109038,5.15277778 31.3109272,4.66511111 C31.5886737,4.39444444 31.9418427,4.25016667 32.4231103,4.25016667 C32.9051761,4.25016667 33.2743075,4.39444444 33.5524531,4.66511111 C34.0536737,5.15277778 34.1087441,5.96516667 34.1087441,6.94011111 L34.1087441,11.6044444 L36.5178756,11.6044444 Z" id="Fill-9" fill="#FEFEFE"></path>
                <path d="M41.0308568,11.5395 C39.1289319,11.5395 38.3212324,10.2277778 38.3212324,8.93472222 L38.3212324,4.42322222 L37.3347535,4.42322222 L37.3347535,2.69227778 L38.3212324,2.69227778 L38.3212324,0 L40.6533451,0 L40.6533451,2.69227778 L42.3042606,2.69227778 L42.3042606,4.42322222 L40.6533451,4.42322222 L40.6533451,8.79355556 C40.6533451,9.31894444 40.9047535,9.61605556 41.4606455,9.61605556 L42.3042606,9.61605556 L42.3042606,11.5395 L41.0308568,11.5395 Z" id="Fill-11" fill="#FEFEFE"></path>
                <path d="M54.7470235,5.15736667 C54.4964131,4.61564444 53.9760376,4.21353333 53.1862958,4.21353333 C52.3969531,4.21353333 51.8773756,4.61564444 51.6255681,5.15736667 C51.4819061,5.48947778 51.4284319,5.73486667 51.4104742,6.13697778 L54.9629155,6.13697778 C54.9445587,5.73486667 54.8906854,5.48947778 54.7470235,5.15736667 Z M51.4104742,7.69292222 C51.4104742,8.86386667 52.1459437,9.72058889 53.456061,9.72058889 C54.4784554,9.72058889 54.9804742,9.44097778 55.5722817,8.86386667 L56.9901455,10.2102 C56.0391831,11.1373111 55.122939,11.6444222 53.4377042,11.6444222 C51.2304977,11.6444222 49.1138779,10.6648111 49.1138779,6.97658889 C49.1138779,4.00353333 50.7647934,2.32508889 53.1862958,2.32508889 C55.7877746,2.32508889 57.2591127,4.17853333 57.2591127,6.67831111 L57.2591127,7.69292222 L51.4104742,7.69292222 Z" id="Fill-13" fill="#FEFEFE"></path>
                <path d="M66.6331362,11.6044444 L66.6331362,6.94011111 C66.6331362,5.24377778 66.4104601,4.17783333 65.5397089,3.29311111 C64.9467042,2.67905556 63.9650141,2.13733333 62.5383709,2.13733333 C61.1113286,2.13733333 60.1483944,2.67905556 59.5553897,3.29311111 C58.6846385,4.17783333 58.4623615,5.24377778 58.4623615,6.94011111 L58.4623615,6.94244444 L58.4623615,8.32494444 L58.4623615,11.6044444 L60.8710939,11.6044444 L60.8710939,6.94011111 C60.8710939,5.96516667 60.9261643,5.15277778 61.4265869,4.66511111 C61.7047324,4.39444444 62.0567042,4.25016667 62.5383709,4.25016667 C63.0196385,4.25016667 63.3903662,4.39444444 63.6689108,4.66511111 C64.1689343,5.15277778 64.2248028,5.96516667 64.2248028,6.94011111 L64.2248028,11.6044444 L66.6331362,11.6044444 Z" id="Fill-15" fill="#FEFEFE"></path>
                <g id="Group-19" transform="translate(76.619718, 2.206400)">
                    <mask id="mask-6" fill="white">
                        <use xlink:href="#path-5"></use>
                    </mask>
                    <g id="Clip-18"></g>
                    <path d="M4.0924108,9.43790556 C2.62187089,9.43790556 1.29379577,9.28079444 0.110180751,8.12657222 L1.6345939,6.64062778 C2.406777,7.39196111 3.41081455,7.49657222 4.12872535,7.49657222 C4.93562676,7.49657222 5.77924178,7.23446111 5.77924178,6.55235 C5.77924178,6.09851667 5.52823239,5.78390556 4.79156573,5.71351667 L3.32102582,5.57390556 C1.6345939,5.41640556 0.594241784,4.69968333 0.594241784,3.02162778 C0.594241784,1.13318333 2.29823239,0.118572222 4.20055634,0.118572222 C5.6531385,0.118572222 6.87306808,0.363183333 7.77055634,1.18529444 L6.3351338,2.60162778 C5.79680047,2.12951667 4.97114319,1.98990556 4.16424178,1.98990556 C3.23163615,1.98990556 2.83696479,2.40951667 2.83696479,2.86373889 C2.83696479,3.19585 2.9802277,3.58046111 3.80508685,3.65085 L5.277223,3.79046111 C7.12447653,3.96507222 8.05748122,4.92679444 8.05748122,6.46523889 C8.05748122,8.47579444 6.29921831,9.43790556 4.0924108,9.43790556" id="Fill-17" fill="#FEFEFE" mask="url(#mask-6)"></path>
                </g>
                <path d="M70.804162,4.54821111 C71.0819085,4.27754444 71.4522371,4.13287778 71.9343028,4.13287778 C72.4155704,4.13326667 72.7675423,4.27754444 73.0456878,4.54821111 C73.5457113,5.03548889 73.6015798,5.86615556 73.6015798,6.8411 C73.6015798,7.81604444 73.5457113,8.62843333 73.0456878,9.1161 C72.7675423,9.38715556 72.4155704,9.53143333 71.9343028,9.53143333 C71.4522371,9.53143333 71.0819085,9.38715556 70.804162,9.1161 C70.3037394,8.62843333 70.24827,7.81604444 70.24827,6.8411 C70.24827,5.86615556 70.3037394,5.03548889 70.804162,4.54821111 M68.9325657,10.4881 C69.5247723,11.1025444 70.5072606,11.6442667 71.9343028,11.6442667 C73.3605469,11.6442667 74.3234812,11.1025444 74.917284,10.4881 C75.7872371,9.60376667 76.0099131,8.5386 76.0099131,6.8411 L76.0099131,6.83954444 L76.0099131,0.000155555556 L73.6015798,0.000155555556 L73.6015798,2.31248889 C73.1358756,2.13243333 72.582777,2.02004444 71.9343028,2.02004444 C70.5072606,2.02004444 69.5247723,2.56254444 68.9325657,3.17621111 C68.0618146,4.06054444 67.8391385,5.1261 67.8391385,6.8411 C67.8391385,8.5386 68.0618146,9.60376667 68.9325657,10.4881" id="Fill-20" fill="#FEFEFE"></path>
                <path d="M47.5892653,2.13741111 C46.162223,2.13741111 45.1988897,2.67913333 44.606284,3.29318889 C43.7359319,4.17791111 43.5132559,5.24346667 43.5132559,6.94018889 L43.5132559,6.94213333 L43.5132559,8.32502222 L43.5132559,11.6045222 L45.9215892,11.6045222 L45.9215892,6.94018889 C45.9215892,5.96524444 45.9770587,5.15285556 46.4770822,4.66518889 C46.7552277,4.39452222 47.1075986,4.25024444 47.5892653,4.25024444 L48.7828568,4.25024444 L48.7828568,2.13741111 L47.5892653,2.13741111 Z" id="Fill-22" fill="#FEFEFE"></path>
            </g>
        </g>
    </g>
</svg>